<svg width="63" height="63" viewBox="0 0 63 63" fill="none" xmlns="http://www.w3.org/2000/svg">
<g id="notion">
<path id="bg" fill-rule="evenodd" clip-rule="evenodd" d="M11.2534 57.5225L4.48213 49.0871C2.85297 47.0576 1.96875 44.5619 1.96875 41.9932V11.4483C1.96875 7.60064 5.04706 4.40797 9.01828 4.13684L40.4226 1.99273C42.7041 1.83697 44.9718 2.4434 46.8459 3.71051L57.8798 11.1705C59.8548 12.5059 61.0312 14.6888 61.0312 17.0184V51.745C61.0312 55.5104 58.0044 58.628 54.1163 58.8673L19.2609 61.0129C16.1582 61.2039 13.1591 59.8966 11.2534 57.5225Z" fill="white"/>
<g id="vector">
<path d="M22.1447 26.733V26.3331C22.1447 25.3195 22.9565 24.4787 24.0029 24.4089L31.6246 23.9L42.1648 39.4213V25.7987L39.4518 25.4371V25.2471C39.4518 24.2215 40.2822 23.3753 41.3419 23.321L48.2769 22.9657V23.9637C48.2769 24.4322 47.9285 24.833 47.451 24.9137L45.7822 25.196V47.2572L43.6877 47.9775C41.938 48.5792 39.99 47.9351 38.9883 46.4236L28.7557 30.9825V45.7202L31.9053 46.3229L31.8614 46.6151C31.7239 47.5302 30.9339 48.2223 29.9781 48.2648L22.1447 48.6134C22.0411 47.6294 22.7787 46.749 23.7961 46.6421L24.8265 46.5339V26.8837L22.1447 26.733Z" fill="black"/>
<path fill-rule="evenodd" clip-rule="evenodd" d="M40.7037 5.84081L9.29933 7.98491C7.41823 8.11334 5.96008 9.62566 5.96008 11.4482V41.9931C5.96008 43.7056 6.54957 45.3694 7.63567 46.7224L14.4069 55.1578C15.5017 56.5217 17.2246 57.2726 19.007 57.1629L53.8623 55.0174C55.6488 54.9074 57.0395 53.475 57.0395 51.745V17.0183C57.0395 15.948 56.499 14.945 55.5915 14.3315L44.5577 6.87147C43.4332 6.1112 42.0726 5.74735 40.7037 5.84081ZM10.8566 11.9247C10.4198 11.6013 10.6277 10.9276 11.1764 10.8882L40.9149 8.7552C41.8624 8.68724 42.804 8.94816 43.5703 9.49106L49.5371 13.7185C49.7636 13.879 49.6573 14.2254 49.3769 14.2407L17.8839 15.9535C16.9308 16.0053 15.99 15.7253 15.2322 15.1642L10.8566 11.9247ZM16.4067 21.3229C16.4067 20.2998 17.2333 19.4547 18.2902 19.3971L51.5872 17.5838C52.6173 17.5277 53.4845 18.3198 53.4845 19.317V49.3866C53.4845 50.4078 52.6609 51.2521 51.606 51.3121L18.5198 53.1947C17.3734 53.2599 16.4067 52.379 16.4067 51.2691V21.3229Z" fill="black"/>
</g>
</g>
</svg>
