<svg width="63" height="63" viewBox="0 0 63 63" fill="none" xmlns="http://www.w3.org/2000/svg">
<g id="shazam">
<path id="bg" d="M3.9375 31.4957C3.9375 46.7157 16.2794 59.0586 31.5011 59.0586C46.7227 59.0586 59.0625 46.7157 59.0625 31.4957C59.0625 16.2717 46.7227 3.93359 31.5011 3.93359C16.2794 3.93359 3.9375 16.2717 3.9375 31.4957Z" fill="url(#paint0_linear_348_488)"/>
<path id="shazam_2" fill-rule="evenodd" clip-rule="evenodd" d="M38.6778 49.465C39.4004 48.7691 43.6415 44.6851 46.0808 41.9949C48.4057 39.4241 49.5749 36.1164 49.3649 32.6863C49.1492 29.1538 47.5006 25.8824 44.7194 23.48C40.1263 19.5087 32.7025 19.5894 28.171 23.6563C26.518 25.1375 24.6509 27.1694 24.5712 27.2565C23.3796 28.5523 23.4677 30.5698 24.7611 31.7607C26.0566 32.9496 28.0682 32.8653 29.2629 31.5709C29.279 31.5518 31.0012 29.6776 32.4221 28.4053C34.8078 26.2636 38.6233 26.6347 40.5551 28.305C42.0268 29.5752 42.8962 31.2684 43.0065 33.0725C43.1103 34.7749 42.5246 36.4246 41.3609 37.7098C39.0619 40.2504 34.8298 44.3229 34.245 44.8856C34.2037 44.9253 34.1807 44.9475 34.1776 44.9506C32.9067 46.1681 32.8604 48.1825 34.0772 49.4572C34.7027 50.1109 35.5381 50.442 36.3803 50.442C37.17 50.442 37.9625 50.148 38.5781 49.561C38.5916 49.548 38.6254 49.5153 38.6778 49.465ZM18.6694 39.2914C20.9299 41.2463 23.8744 42.2219 26.8229 42.2219C29.868 42.2219 32.9168 41.1827 35.2175 39.1159C36.7332 37.7545 38.4329 35.9319 38.763 35.5779C38.7926 35.5462 38.8112 35.5263 38.8176 35.5195C40.0086 34.2237 39.9222 32.2048 38.6277 31.0151C37.3347 29.8225 35.3183 29.9056 34.1283 31.2027C34.1277 31.2034 34.1247 31.2066 34.1195 31.2123C33.9836 31.359 32.3346 33.1412 30.9677 34.3704C28.5807 36.508 24.7666 36.1422 22.8324 34.4683C21.3624 33.1971 20.493 31.5035 20.3817 29.698C20.2779 27.9973 20.8646 26.3514 22.0283 25.0611C24.4909 22.3435 29.1637 17.8689 29.2116 17.8234C30.4832 16.6072 30.5264 14.59 29.3123 13.3167C28.0952 12.0451 26.081 11.9964 24.8101 13.2143L24.7891 13.2343C24.3963 13.6113 19.8631 17.9599 17.3104 20.7803C14.9818 23.3497 13.8174 26.6572 14.0233 30.086C14.2407 33.6203 15.8894 36.8895 18.6694 39.2914Z" fill="white"/>
</g>
<defs>
<linearGradient id="paint0_linear_348_488" x1="3.9375" y1="59.0586" x2="3.9375" y2="3.93359" gradientUnits="userSpaceOnUse">
<stop stop-color="#2255FF"/>
<stop offset="1" stop-color="#00AAFF"/>
</linearGradient>
</defs>
</svg>
