<svg width="20" height="21" viewBox="0 0 20 21" fill="none" xmlns="http://www.w3.org/2000/svg">
<g id="Tick Square">
<path id="Fill 1" fill-rule="evenodd" clip-rule="evenodd" d="M5.665 2.00012C3.135 2.00012 1.5 3.73312 1.5 6.41612V14.5841C1.5 17.2671 3.135 19.0001 5.665 19.0001H14.333C16.864 19.0001 18.5 17.2671 18.5 14.5841V6.41612C18.5 3.73312 16.864 2.00012 14.334 2.00012H5.665ZM14.333 20.5001H5.665C2.276 20.5001 0 18.1221 0 14.5841V6.41612C0 2.87812 2.276 0.500122 5.665 0.500122H14.334C17.723 0.500122 20 2.87812 20 6.41612V14.5841C20 18.1221 17.723 20.5001 14.333 20.5001Z" fill="#131126"/>
<path id="Fill 3" fill-rule="evenodd" clip-rule="evenodd" d="M8.81351 13.6231C8.62251 13.6231 8.42951 13.5501 8.28351 13.4031L5.90951 11.0301C5.61651 10.7371 5.61651 10.2631 5.90951 9.97007C6.20251 9.67707 6.67651 9.67707 6.96951 9.97007L8.81351 11.8121L13.0295 7.59707C13.3225 7.30407 13.7965 7.30407 14.0895 7.59707C14.3825 7.89007 14.3825 8.36407 14.0895 8.65707L9.34351 13.4031C9.19751 13.5501 9.00551 13.6231 8.81351 13.6231Z" fill="#131126"/>
</g>
</svg>
